<?xml version="1.0" encoding="UTF-8"?>
<svg viewBox="0 0 504.1 506.1125" xmlns="http://www.w3.org/2000/svg">
 <g transform="translate(-58.205 -337.91)" fill="none" stroke="#000" stroke-width="1.25">
  <g transform="translate(-44.274 483.61)">
   <g transform="matrix(6.123e-17 -1 1 6.123e-17 -187.06 398.88)">
    <path d="m262.24 789.09c-31.076-62.152-74.803-219.89-51.79-280.45 5.3858-14.174 31.487 20.432 33.59 23.102 21.349 27.117 34.784 60.323 48.111 91.816"/>
    <path d="m320.81 789.09c31.076-62.152 74.803-219.89 51.79-280.45-5.3858-14.174-31.487 20.432-33.59 23.102-21.349 27.117-34.784 60.323-48.111 91.816"/>
   </g>
   <g transform="matrix(-1.8369e-16 1 -1 -1.8369e-16 896.12 -184.16)">
    <path d="m262.24 789.09c-31.076-62.152-74.803-219.89-51.79-280.45 5.3858-14.174 31.487 20.432 33.59 23.102 21.349 27.117 34.784 60.323 48.111 91.816"/>
    <path d="m320.81 789.09c31.076-62.152 74.803-219.89 51.79-280.45-5.3858-14.174-31.487 20.432-33.59 23.102-21.349 27.117-34.784 60.323-48.111 91.816"/>
   </g>
  </g>
  <g transform="matrix(6.123e-17 -1 1 6.123e-17 202.89 945.5)">
   <g transform="matrix(6.123e-17 -1 1 6.123e-17 -187.06 398.88)">
    <path d="m262.24 789.09c-31.076-62.152-74.803-219.89-51.79-280.45 5.3858-14.174 31.487 20.432 33.59 23.102 21.349 27.117 34.784 60.323 48.111 91.816"/>
    <path d="m320.81 789.09c31.076-62.152 74.803-219.89 51.79-280.45-5.3858-14.174-31.487 20.432-33.59 23.102-21.349 27.117-34.784 60.323-48.111 91.816"/>
   </g>
   <g transform="matrix(-1.8369e-16 1 -1 -1.8369e-16 896.12 -184.16)">
    <path d="m262.24 789.09c-31.076-62.152-74.803-219.89-51.79-280.45 5.3858-14.174 31.487 20.432 33.59 23.102 21.349 27.117 34.784 60.323 48.111 91.816"/>
    <path d="m320.81 789.09c31.076-62.152 74.803-219.89 51.79-280.45-5.3858-14.174-31.487 20.432-33.59 23.102-21.349 27.117-34.784 60.323-48.111 91.816"/>
   </g>
  </g>
  <g transform="matrix(-.71134 -.70285 .70285 -.71134 486.99 916.52)">
   <g transform="matrix(6.123e-17 -1 1 6.123e-17 -187.06 398.88)">
    <path d="m262.24 789.09c-31.076-62.152-74.803-219.89-51.79-280.45 5.3858-14.174 31.487 20.432 33.59 23.102 21.349 27.117 34.784 60.323 48.111 91.816"/>
    <path d="m320.81 789.09c31.076-62.152 74.803-219.89 51.79-280.45-5.3858-14.174-31.487 20.432-33.59 23.102-21.349 27.117-34.784 60.323-48.111 91.816"/>
   </g>
   <g transform="matrix(-1.8369e-16 1 -1 -1.8369e-16 896.12 -184.16)">
    <path d="m262.24 789.09c-31.076-62.152-74.803-219.89-51.79-280.45 5.3858-14.174 31.487 20.432 33.59 23.102 21.349 27.117 34.784 60.323 48.111 91.816"/>
    <path d="m320.81 789.09c31.076-62.152 74.803-219.89 51.79-280.45-5.3858-14.174-31.487 20.432-33.59 23.102-21.349 27.117-34.784 60.323-48.111 91.816"/>
   </g>
  </g>
  <g transform="matrix(-.70285 .71134 -.71134 -.70285 635.81 414.24)">
   <g transform="matrix(6.123e-17 -1 1 6.123e-17 -187.06 398.88)">
    <path d="m262.24 789.09c-31.076-62.152-74.803-219.89-51.79-280.45 5.3858-14.174 31.487 20.432 33.59 23.102 21.349 27.117 34.784 60.323 48.111 91.816"/>
    <path d="m320.81 789.09c31.076-62.152 74.803-219.89 51.79-280.45-5.3858-14.174-31.487 20.432-33.59 23.102-21.349 27.117-34.784 60.323-48.111 91.816"/>
   </g>
   <g transform="matrix(-1.8369e-16 1 -1 -1.8369e-16 896.12 -184.16)">
    <path d="m262.24 789.09c-31.076-62.152-74.803-219.89-51.79-280.45 5.3858-14.174 31.487 20.432 33.59 23.102 21.349 27.117 34.784 60.323 48.111 91.816"/>
    <path d="m320.81 789.09c31.076-62.152 74.803-219.89 51.79-280.45-5.3858-14.174-31.487 20.432-33.59 23.102-21.349 27.117-34.784 60.323-48.111 91.816"/>
   </g>
  </g>
  <g transform="matrix(.9265 .37629 -.37629 .9265 245.18 -73.311)">
   <g transform="translate(-44.274 483.61)">
    <g transform="matrix(6.123e-17 -1 1 6.123e-17 -187.06 398.88)">
     <path d="m262.24 789.09c-31.076-62.152-74.803-219.89-51.79-280.45 5.3858-14.174 31.487 20.432 33.59 23.102 21.349 27.117 34.784 60.323 48.111 91.816"/>
     <path d="m320.81 789.09c31.076-62.152 74.803-219.89 51.79-280.45-5.3858-14.174-31.487 20.432-33.59 23.102-21.349 27.117-34.784 60.323-48.111 91.816"/>
    </g>
    <g transform="matrix(-1.8369e-16 1 -1 -1.8369e-16 896.12 -184.16)">
     <path d="m262.24 789.09c-31.076-62.152-74.803-219.89-51.79-280.45 5.3858-14.174 31.487 20.432 33.59 23.102 21.349 27.117 34.784 60.323 48.111 91.816"/>
     <path d="m320.81 789.09c31.076-62.152 74.803-219.89 51.79-280.45-5.3858-14.174-31.487 20.432-33.59 23.102-21.349 27.117-34.784 60.323-48.111 91.816"/>
    </g>
   </g>
   <g transform="matrix(6.123e-17 -1 1 6.123e-17 202.89 945.5)">
    <g transform="matrix(6.123e-17 -1 1 6.123e-17 -187.06 398.88)">
     <path d="m262.24 789.09c-31.076-62.152-74.803-219.89-51.79-280.45 5.3858-14.174 31.487 20.432 33.59 23.102 21.349 27.117 34.784 60.323 48.111 91.816"/>
     <path d="m320.81 789.09c31.076-62.152 74.803-219.89 51.79-280.45-5.3858-14.174-31.487 20.432-33.59 23.102-21.349 27.117-34.784 60.323-48.111 91.816"/>
    </g>
    <g transform="matrix(-1.8369e-16 1 -1 -1.8369e-16 896.12 -184.16)">
     <path d="m262.24 789.09c-31.076-62.152-74.803-219.89-51.79-280.45 5.3858-14.174 31.487 20.432 33.59 23.102 21.349 27.117 34.784 60.323 48.111 91.816"/>
     <path d="m320.81 789.09c31.076-62.152 74.803-219.89 51.79-280.45-5.3858-14.174-31.487 20.432-33.59 23.102-21.349 27.117-34.784 60.323-48.111 91.816"/>
    </g>
   </g>
   <g transform="matrix(-.71134 -.70285 .70285 -.71134 486.99 916.52)">
    <g transform="matrix(6.123e-17 -1 1 6.123e-17 -187.06 398.88)">
     <path d="m262.24 789.09c-31.076-62.152-74.803-219.89-51.79-280.45 5.3858-14.174 31.487 20.432 33.59 23.102 21.349 27.117 34.784 60.323 48.111 91.816"/>
     <path d="m320.81 789.09c31.076-62.152 74.803-219.89 51.79-280.45-5.3858-14.174-31.487 20.432-33.59 23.102-21.349 27.117-34.784 60.323-48.111 91.816"/>
    </g>
    <g transform="matrix(-1.8369e-16 1 -1 -1.8369e-16 896.12 -184.16)">
     <path d="m262.24 789.09c-31.076-62.152-74.803-219.89-51.79-280.45 5.3858-14.174 31.487 20.432 33.59 23.102 21.349 27.117 34.784 60.323 48.111 91.816"/>
     <path d="m320.81 789.09c31.076-62.152 74.803-219.89 51.79-280.45-5.3858-14.174-31.487 20.432-33.59 23.102-21.349 27.117-34.784 60.323-48.111 91.816"/>
    </g>
   </g>
   <g transform="matrix(-.70285 .71134 -.71134 -.70285 635.81 414.24)">
    <g transform="matrix(6.123e-17 -1 1 6.123e-17 -187.06 398.88)">
     <path d="m262.24 789.09c-31.076-62.152-74.803-219.89-51.79-280.45 5.3858-14.174 31.487 20.432 33.59 23.102 21.349 27.117 34.784 60.323 48.111 91.816"/>
     <path d="m320.81 789.09c31.076-62.152 74.803-219.89 51.79-280.45-5.3858-14.174-31.487 20.432-33.59 23.102-21.349 27.117-34.784 60.323-48.111 91.816"/>
    </g>
    <g transform="matrix(-1.8369e-16 1 -1 -1.8369e-16 896.12 -184.16)">
     <path d="m262.24 789.09c-31.076-62.152-74.803-219.89-51.79-280.45 5.3858-14.174 31.487 20.432 33.59 23.102 21.349 27.117 34.784 60.323 48.111 91.816"/>
     <path d="m320.81 789.09c31.076-62.152 74.803-219.89 51.79-280.45-5.3858-14.174-31.487 20.432-33.59 23.102-21.349 27.117-34.784 60.323-48.111 91.816"/>
    </g>
   </g>
  </g>
  <g transform="matrix(.98145 .19171 -.19171 .98145 119.05 -48.518)">
   <g transform="translate(-44.274 483.61)">
    <g transform="matrix(6.123e-17 -1 1 6.123e-17 -187.06 398.88)">
     <path d="m262.24 789.09c-31.076-62.152-74.803-219.89-51.79-280.45 5.3858-14.174 31.487 20.432 33.59 23.102 21.349 27.117 34.784 60.323 48.111 91.816"/>
     <path d="m320.81 789.09c31.076-62.152 74.803-219.89 51.79-280.45-5.3858-14.174-31.487 20.432-33.59 23.102-21.349 27.117-34.784 60.323-48.111 91.816"/>
    </g>
    <g transform="matrix(-1.8369e-16 1 -1 -1.8369e-16 896.12 -184.16)">
     <path d="m262.24 789.09c-31.076-62.152-74.803-219.89-51.79-280.45 5.3858-14.174 31.487 20.432 33.59 23.102 21.349 27.117 34.784 60.323 48.111 91.816"/>
     <path d="m320.81 789.09c31.076-62.152 74.803-219.89 51.79-280.45-5.3858-14.174-31.487 20.432-33.59 23.102-21.349 27.117-34.784 60.323-48.111 91.816"/>
    </g>
   </g>
   <g transform="matrix(6.123e-17 -1 1 6.123e-17 202.89 945.5)">
    <g transform="matrix(6.123e-17 -1 1 6.123e-17 -187.06 398.88)">
     <path d="m262.24 789.09c-31.076-62.152-74.803-219.89-51.79-280.45 5.3858-14.174 31.487 20.432 33.59 23.102 21.349 27.117 34.784 60.323 48.111 91.816"/>
     <path d="m320.81 789.09c31.076-62.152 74.803-219.89 51.79-280.45-5.3858-14.174-31.487 20.432-33.59 23.102-21.349 27.117-34.784 60.323-48.111 91.816"/>
    </g>
    <g transform="matrix(-1.8369e-16 1 -1 -1.8369e-16 896.12 -184.16)">
     <path d="m262.24 789.09c-31.076-62.152-74.803-219.89-51.79-280.45 5.3858-14.174 31.487 20.432 33.59 23.102 21.349 27.117 34.784 60.323 48.111 91.816"/>
     <path d="m320.81 789.09c31.076-62.152 74.803-219.89 51.79-280.45-5.3858-14.174-31.487 20.432-33.59 23.102-21.349 27.117-34.784 60.323-48.111 91.816"/>
    </g>
   </g>
   <g transform="matrix(-.71134 -.70285 .70285 -.71134 486.99 916.52)">
    <g transform="matrix(6.123e-17 -1 1 6.123e-17 -187.06 398.88)">
     <path d="m262.24 789.09c-31.076-62.152-74.803-219.89-51.79-280.45 5.3858-14.174 31.487 20.432 33.59 23.102 21.349 27.117 34.784 60.323 48.111 91.816"/>
     <path d="m320.81 789.09c31.076-62.152 74.803-219.89 51.79-280.45-5.3858-14.174-31.487 20.432-33.59 23.102-21.349 27.117-34.784 60.323-48.111 91.816"/>
    </g>
    <g transform="matrix(-1.8369e-16 1 -1 -1.8369e-16 896.12 -184.16)">
     <path d="m262.24 789.09c-31.076-62.152-74.803-219.89-51.79-280.45 5.3858-14.174 31.487 20.432 33.59 23.102 21.349 27.117 34.784 60.323 48.111 91.816"/>
     <path d="m320.81 789.09c31.076-62.152 74.803-219.89 51.79-280.45-5.3858-14.174-31.487 20.432-33.59 23.102-21.349 27.117-34.784 60.323-48.111 91.816"/>
    </g>
   </g>
   <g transform="matrix(-.70285 .71134 -.71134 -.70285 635.81 414.24)">
    <g transform="matrix(6.123e-17 -1 1 6.123e-17 -187.06 398.88)">
     <path d="m262.24 789.09c-31.076-62.152-74.803-219.89-51.79-280.45 5.3858-14.174 31.487 20.432 33.59 23.102 21.349 27.117 34.784 60.323 48.111 91.816"/>
     <path d="m320.81 789.09c31.076-62.152 74.803-219.89 51.79-280.45-5.3858-14.174-31.487 20.432-33.59 23.102-21.349 27.117-34.784 60.323-48.111 91.816"/>
    </g>
    <g transform="matrix(-1.8369e-16 1 -1 -1.8369e-16 896.12 -184.16)">
     <path d="m262.24 789.09c-31.076-62.152-74.803-219.89-51.79-280.45 5.3858-14.174 31.487 20.432 33.59 23.102 21.349 27.117 34.784 60.323 48.111 91.816"/>
     <path d="m320.81 789.09c31.076-62.152 74.803-219.89 51.79-280.45-5.3858-14.174-31.487 20.432-33.59 23.102-21.349 27.117-34.784 60.323-48.111 91.816"/>
    </g>
   </g>
  </g>
  <g transform="matrix(.83718 .54693 -.54693 .83718 373.74 -73.465)">
   <g transform="translate(-44.274 483.61)">
    <g transform="matrix(6.123e-17 -1 1 6.123e-17 -187.06 398.88)">
     <path d="m262.24 789.09c-31.076-62.152-74.803-219.89-51.79-280.45 5.3858-14.174 31.487 20.432 33.59 23.102 21.349 27.117 34.784 60.323 48.111 91.816"/>
     <path d="m320.81 789.09c31.076-62.152 74.803-219.89 51.79-280.45-5.3858-14.174-31.487 20.432-33.59 23.102-21.349 27.117-34.784 60.323-48.111 91.816"/>
    </g>
    <g transform="matrix(-1.8369e-16 1 -1 -1.8369e-16 896.12 -184.16)">
     <path d="m262.24 789.09c-31.076-62.152-74.803-219.89-51.79-280.45 5.3858-14.174 31.487 20.432 33.59 23.102 21.349 27.117 34.784 60.323 48.111 91.816"/>
     <path d="m320.81 789.09c31.076-62.152 74.803-219.89 51.79-280.45-5.3858-14.174-31.487 20.432-33.59 23.102-21.349 27.117-34.784 60.323-48.111 91.816"/>
    </g>
   </g>
   <g transform="matrix(6.123e-17 -1 1 6.123e-17 202.89 945.5)">
    <g transform="matrix(6.123e-17 -1 1 6.123e-17 -187.06 398.88)">
     <path d="m262.24 789.09c-31.076-62.152-74.803-219.89-51.79-280.45 5.3858-14.174 31.487 20.432 33.59 23.102 21.349 27.117 34.784 60.323 48.111 91.816"/>
     <path d="m320.81 789.09c31.076-62.152 74.803-219.89 51.79-280.45-5.3858-14.174-31.487 20.432-33.59 23.102-21.349 27.117-34.784 60.323-48.111 91.816"/>
    </g>
    <g transform="matrix(-1.8369e-16 1 -1 -1.8369e-16 896.12 -184.16)">
     <path d="m262.24 789.09c-31.076-62.152-74.803-219.89-51.79-280.45 5.3858-14.174 31.487 20.432 33.59 23.102 21.349 27.117 34.784 60.323 48.111 91.816"/>
     <path d="m320.81 789.09c31.076-62.152 74.803-219.89 51.79-280.45-5.3858-14.174-31.487 20.432-33.59 23.102-21.349 27.117-34.784 60.323-48.111 91.816"/>
    </g>
   </g>
   <g transform="matrix(-.71134 -.70285 .70285 -.71134 486.99 916.52)">
    <g transform="matrix(6.123e-17 -1 1 6.123e-17 -187.06 398.88)">
     <path d="m262.24 789.09c-31.076-62.152-74.803-219.89-51.79-280.45 5.3858-14.174 31.487 20.432 33.59 23.102 21.349 27.117 34.784 60.323 48.111 91.816"/>
     <path d="m320.81 789.09c31.076-62.152 74.803-219.89 51.79-280.45-5.3858-14.174-31.487 20.432-33.59 23.102-21.349 27.117-34.784 60.323-48.111 91.816"/>
    </g>
    <g transform="matrix(-1.8369e-16 1 -1 -1.8369e-16 896.12 -184.16)">
     <path d="m262.24 789.09c-31.076-62.152-74.803-219.89-51.79-280.45 5.3858-14.174 31.487 20.432 33.59 23.102 21.349 27.117 34.784 60.323 48.111 91.816"/>
     <path d="m320.81 789.09c31.076-62.152 74.803-219.89 51.79-280.45-5.3858-14.174-31.487 20.432-33.59 23.102-21.349 27.117-34.784 60.323-48.111 91.816"/>
    </g>
   </g>
   <g transform="matrix(-.70285 .71134 -.71134 -.70285 635.81 414.24)">
    <g transform="matrix(6.123e-17 -1 1 6.123e-17 -187.06 398.88)">
     <path d="m262.24 789.09c-31.076-62.152-74.803-219.89-51.79-280.45 5.3858-14.174 31.487 20.432 33.59 23.102 21.349 27.117 34.784 60.323 48.111 91.816"/>
     <path d="m320.81 789.09c31.076-62.152 74.803-219.89 51.79-280.45-5.3858-14.174-31.487 20.432-33.59 23.102-21.349 27.117-34.784 60.323-48.111 91.816"/>
    </g>
    <g transform="matrix(-1.8369e-16 1 -1 -1.8369e-16 896.12 -184.16)">
     <path d="m262.24 789.09c-31.076-62.152-74.803-219.89-51.79-280.45 5.3858-14.174 31.487 20.432 33.59 23.102 21.349 27.117 34.784 60.323 48.111 91.816"/>
     <path d="m320.81 789.09c31.076-62.152 74.803-219.89 51.79-280.45-5.3858-14.174-31.487 20.432-33.59 23.102-21.349 27.117-34.784 60.323-48.111 91.816"/>
    </g>
   </g>
  </g>
  <g transform="matrix(.99489 -.10097 .10097 .99489 -58.085 34.347)">
   <g transform="translate(-44.274 483.61)">
    <g transform="matrix(6.123e-17 -1 1 6.123e-17 -187.06 398.88)">
     <path d="m262.24 789.09c-31.076-62.152-74.803-219.89-51.79-280.45 5.3858-14.174 31.487 20.432 33.59 23.102 21.349 27.117 34.784 60.323 48.111 91.816"/>
     <path d="m320.81 789.09c31.076-62.152 74.803-219.89 51.79-280.45-5.3858-14.174-31.487 20.432-33.59 23.102-21.349 27.117-34.784 60.323-48.111 91.816"/>
    </g>
    <g transform="matrix(-1.8369e-16 1 -1 -1.8369e-16 896.12 -184.16)">
     <path d="m262.24 789.09c-31.076-62.152-74.803-219.89-51.79-280.45 5.3858-14.174 31.487 20.432 33.59 23.102 21.349 27.117 34.784 60.323 48.111 91.816"/>
     <path d="m320.81 789.09c31.076-62.152 74.803-219.89 51.79-280.45-5.3858-14.174-31.487 20.432-33.59 23.102-21.349 27.117-34.784 60.323-48.111 91.816"/>
    </g>
   </g>
   <g transform="matrix(6.123e-17 -1 1 6.123e-17 202.89 945.5)">
    <g transform="matrix(6.123e-17 -1 1 6.123e-17 -187.06 398.88)">
     <path d="m262.24 789.09c-31.076-62.152-74.803-219.89-51.79-280.45 5.3858-14.174 31.487 20.432 33.59 23.102 21.349 27.117 34.784 60.323 48.111 91.816"/>
     <path d="m320.81 789.09c31.076-62.152 74.803-219.89 51.79-280.45-5.3858-14.174-31.487 20.432-33.59 23.102-21.349 27.117-34.784 60.323-48.111 91.816"/>
    </g>
    <g transform="matrix(-1.8369e-16 1 -1 -1.8369e-16 896.12 -184.16)">
     <path d="m262.24 789.09c-31.076-62.152-74.803-219.89-51.79-280.45 5.3858-14.174 31.487 20.432 33.59 23.102 21.349 27.117 34.784 60.323 48.111 91.816"/>
     <path d="m320.81 789.09c31.076-62.152 74.803-219.89 51.79-280.45-5.3858-14.174-31.487 20.432-33.59 23.102-21.349 27.117-34.784 60.323-48.111 91.816"/>
    </g>
   </g>
   <g transform="matrix(-.71134 -.70285 .70285 -.71134 486.99 916.52)">
    <g transform="matrix(6.123e-17 -1 1 6.123e-17 -187.06 398.88)">
     <path d="m262.24 789.09c-31.076-62.152-74.803-219.89-51.79-280.45 5.3858-14.174 31.487 20.432 33.59 23.102 21.349 27.117 34.784 60.323 48.111 91.816"/>
     <path d="m320.81 789.09c31.076-62.152 74.803-219.89 51.79-280.45-5.3858-14.174-31.487 20.432-33.59 23.102-21.349 27.117-34.784 60.323-48.111 91.816"/>
    </g>
    <g transform="matrix(-1.8369e-16 1 -1 -1.8369e-16 896.12 -184.16)">
     <path d="m262.24 789.09c-31.076-62.152-74.803-219.89-51.79-280.45 5.3858-14.174 31.487 20.432 33.59 23.102 21.349 27.117 34.784 60.323 48.111 91.816"/>
     <path d="m320.81 789.09c31.076-62.152 74.803-219.89 51.79-280.45-5.3858-14.174-31.487 20.432-33.59 23.102-21.349 27.117-34.784 60.323-48.111 91.816"/>
    </g>
   </g>
   <g transform="matrix(-.70285 .71134 -.71134 -.70285 635.81 414.24)">
    <g transform="matrix(6.123e-17 -1 1 6.123e-17 -187.06 398.88)">
     <path d="m262.24 789.09c-31.076-62.152-74.803-219.89-51.79-280.45 5.3858-14.174 31.487 20.432 33.59 23.102 21.349 27.117 34.784 60.323 48.111 91.816"/>
     <path d="m320.81 789.09c31.076-62.152 74.803-219.89 51.79-280.45-5.3858-14.174-31.487 20.432-33.59 23.102-21.349 27.117-34.784 60.323-48.111 91.816"/>
    </g>
    <g transform="matrix(-1.8369e-16 1 -1 -1.8369e-16 896.12 -184.16)">
     <path d="m262.24 789.09c-31.076-62.152-74.803-219.89-51.79-280.45 5.3858-14.174 31.487 20.432 33.59 23.102 21.349 27.117 34.784 60.323 48.111 91.816"/>
     <path d="m320.81 789.09c31.076-62.152 74.803-219.89 51.79-280.45-5.3858-14.174-31.487 20.432-33.59 23.102-21.349 27.117-34.784 60.323-48.111 91.816"/>
    </g>
   </g>
  </g>
  <g transform="matrix(.95976 .28082 -.28082 .95976 178.44 -63.346)">
   <g transform="translate(-44.274 483.61)">
    <g transform="matrix(6.123e-17 -1 1 6.123e-17 -187.06 398.88)">
     <path d="m262.24 789.09c-31.076-62.152-74.803-219.89-51.79-280.45 5.3858-14.174 31.487 20.432 33.59 23.102 21.349 27.117 34.784 60.323 48.111 91.816"/>
     <path d="m320.81 789.09c31.076-62.152 74.803-219.89 51.79-280.45-5.3858-14.174-31.487 20.432-33.59 23.102-21.349 27.117-34.784 60.323-48.111 91.816"/>
    </g>
    <g transform="matrix(-1.8369e-16 1 -1 -1.8369e-16 896.12 -184.16)">
     <path d="m262.24 789.09c-31.076-62.152-74.803-219.89-51.79-280.45 5.3858-14.174 31.487 20.432 33.59 23.102 21.349 27.117 34.784 60.323 48.111 91.816"/>
     <path d="m320.81 789.09c31.076-62.152 74.803-219.89 51.79-280.45-5.3858-14.174-31.487 20.432-33.59 23.102-21.349 27.117-34.784 60.323-48.111 91.816"/>
    </g>
   </g>
   <g transform="matrix(6.123e-17 -1 1 6.123e-17 202.89 945.5)">
    <g transform="matrix(6.123e-17 -1 1 6.123e-17 -187.06 398.88)">
     <path d="m262.24 789.09c-31.076-62.152-74.803-219.89-51.79-280.45 5.3858-14.174 31.487 20.432 33.59 23.102 21.349 27.117 34.784 60.323 48.111 91.816"/>
     <path d="m320.81 789.09c31.076-62.152 74.803-219.89 51.79-280.45-5.3858-14.174-31.487 20.432-33.59 23.102-21.349 27.117-34.784 60.323-48.111 91.816"/>
    </g>
    <g transform="matrix(-1.8369e-16 1 -1 -1.8369e-16 896.12 -184.16)">
     <path d="m262.24 789.09c-31.076-62.152-74.803-219.89-51.79-280.45 5.3858-14.174 31.487 20.432 33.59 23.102 21.349 27.117 34.784 60.323 48.111 91.816"/>
     <path d="m320.81 789.09c31.076-62.152 74.803-219.89 51.79-280.45-5.3858-14.174-31.487 20.432-33.59 23.102-21.349 27.117-34.784 60.323-48.111 91.816"/>
    </g>
   </g>
   <g transform="matrix(-.71134 -.70285 .70285 -.71134 486.99 916.52)">
    <g transform="matrix(6.123e-17 -1 1 6.123e-17 -187.06 398.88)">
     <path d="m262.24 789.09c-31.076-62.152-74.803-219.89-51.79-280.45 5.3858-14.174 31.487 20.432 33.59 23.102 21.349 27.117 34.784 60.323 48.111 91.816"/>
     <path d="m320.81 789.09c31.076-62.152 74.803-219.89 51.79-280.45-5.3858-14.174-31.487 20.432-33.59 23.102-21.349 27.117-34.784 60.323-48.111 91.816"/>
    </g>
    <g transform="matrix(-1.8369e-16 1 -1 -1.8369e-16 896.12 -184.16)">
     <path d="m262.24 789.09c-31.076-62.152-74.803-219.89-51.79-280.45 5.3858-14.174 31.487 20.432 33.59 23.102 21.349 27.117 34.784 60.323 48.111 91.816"/>
     <path d="m320.81 789.09c31.076-62.152 74.803-219.89 51.79-280.45-5.3858-14.174-31.487 20.432-33.59 23.102-21.349 27.117-34.784 60.323-48.111 91.816"/>
    </g>
   </g>
   <g transform="matrix(-.70285 .71134 -.71134 -.70285 635.81 414.24)">
    <g transform="matrix(6.123e-17 -1 1 6.123e-17 -187.06 398.88)">
     <path d="m262.24 789.09c-31.076-62.152-74.803-219.89-51.79-280.45 5.3858-14.174 31.487 20.432 33.59 23.102 21.349 27.117 34.784 60.323 48.111 91.816"/>
     <path d="m320.81 789.09c31.076-62.152 74.803-219.89 51.79-280.45-5.3858-14.174-31.487 20.432-33.59 23.102-21.349 27.117-34.784 60.323-48.111 91.816"/>
    </g>
    <g transform="matrix(-1.8369e-16 1 -1 -1.8369e-16 896.12 -184.16)">
     <path d="m262.24 789.09c-31.076-62.152-74.803-219.89-51.79-280.45 5.3858-14.174 31.487 20.432 33.59 23.102 21.349 27.117 34.784 60.323 48.111 91.816"/>
     <path d="m320.81 789.09c31.076-62.152 74.803-219.89 51.79-280.45-5.3858-14.174-31.487 20.432-33.59 23.102-21.349 27.117-34.784 60.323-48.111 91.816"/>
    </g>
   </g>
  </g>
  <g transform="matrix(.99579 .091633 -.091633 .99579 55.458 -25.943)">
   <g transform="translate(-44.274 483.61)">
    <g transform="matrix(6.123e-17 -1 1 6.123e-17 -187.06 398.88)">
     <path d="m262.24 789.09c-31.076-62.152-74.803-219.89-51.79-280.45 5.3858-14.174 31.487 20.432 33.59 23.102 21.349 27.117 34.784 60.323 48.111 91.816"/>
     <path d="m320.81 789.09c31.076-62.152 74.803-219.89 51.79-280.45-5.3858-14.174-31.487 20.432-33.59 23.102-21.349 27.117-34.784 60.323-48.111 91.816"/>
    </g>
    <g transform="matrix(-1.8369e-16 1 -1 -1.8369e-16 896.12 -184.16)">
     <path d="m262.24 789.09c-31.076-62.152-74.803-219.89-51.79-280.45 5.3858-14.174 31.487 20.432 33.59 23.102 21.349 27.117 34.784 60.323 48.111 91.816"/>
     <path d="m320.81 789.09c31.076-62.152 74.803-219.89 51.79-280.45-5.3858-14.174-31.487 20.432-33.59 23.102-21.349 27.117-34.784 60.323-48.111 91.816"/>
    </g>
   </g>
   <g transform="matrix(6.123e-17 -1 1 6.123e-17 202.89 945.5)">
    <g transform="matrix(6.123e-17 -1 1 6.123e-17 -187.06 398.88)">
     <path d="m262.24 789.09c-31.076-62.152-74.803-219.89-51.79-280.45 5.3858-14.174 31.487 20.432 33.59 23.102 21.349 27.117 34.784 60.323 48.111 91.816"/>
     <path d="m320.81 789.09c31.076-62.152 74.803-219.89 51.79-280.45-5.3858-14.174-31.487 20.432-33.59 23.102-21.349 27.117-34.784 60.323-48.111 91.816"/>
    </g>
    <g transform="matrix(-1.8369e-16 1 -1 -1.8369e-16 896.12 -184.16)">
     <path d="m262.24 789.09c-31.076-62.152-74.803-219.89-51.79-280.45 5.3858-14.174 31.487 20.432 33.59 23.102 21.349 27.117 34.784 60.323 48.111 91.816"/>
     <path d="m320.81 789.09c31.076-62.152 74.803-219.89 51.79-280.45-5.3858-14.174-31.487 20.432-33.59 23.102-21.349 27.117-34.784 60.323-48.111 91.816"/>
    </g>
   </g>
   <g transform="matrix(-.71134 -.70285 .70285 -.71134 486.99 916.52)">
    <g transform="matrix(6.123e-17 -1 1 6.123e-17 -187.06 398.88)">
     <path d="m262.24 789.09c-31.076-62.152-74.803-219.89-51.79-280.45 5.3858-14.174 31.487 20.432 33.59 23.102 21.349 27.117 34.784 60.323 48.111 91.816"/>
     <path d="m320.81 789.09c31.076-62.152 74.803-219.89 51.79-280.45-5.3858-14.174-31.487 20.432-33.59 23.102-21.349 27.117-34.784 60.323-48.111 91.816"/>
    </g>
    <g transform="matrix(-1.8369e-16 1 -1 -1.8369e-16 896.12 -184.16)">
     <path d="m262.24 789.09c-31.076-62.152-74.803-219.89-51.79-280.45 5.3858-14.174 31.487 20.432 33.59 23.102 21.349 27.117 34.784 60.323 48.111 91.816"/>
     <path d="m320.81 789.09c31.076-62.152 74.803-219.89 51.79-280.45-5.3858-14.174-31.487 20.432-33.59 23.102-21.349 27.117-34.784 60.323-48.111 91.816"/>
    </g>
   </g>
   <g transform="matrix(-.70285 .71134 -.71134 -.70285 635.81 414.24)">
    <g transform="matrix(6.123e-17 -1 1 6.123e-17 -187.06 398.88)">
     <path d="m262.24 789.09c-31.076-62.152-74.803-219.89-51.79-280.45 5.3858-14.174 31.487 20.432 33.59 23.102 21.349 27.117 34.784 60.323 48.111 91.816"/>
     <path d="m320.81 789.09c31.076-62.152 74.803-219.89 51.79-280.45-5.3858-14.174-31.487 20.432-33.59 23.102-21.349 27.117-34.784 60.323-48.111 91.816"/>
    </g>
    <g transform="matrix(-1.8369e-16 1 -1 -1.8369e-16 896.12 -184.16)">
     <path d="m262.24 789.09c-31.076-62.152-74.803-219.89-51.79-280.45 5.3858-14.174 31.487 20.432 33.59 23.102 21.349 27.117 34.784 60.323 48.111 91.816"/>
     <path d="m320.81 789.09c31.076-62.152 74.803-219.89 51.79-280.45-5.3858-14.174-31.487 20.432-33.59 23.102-21.349 27.117-34.784 60.323-48.111 91.816"/>
    </g>
   </g>
  </g>
  <g transform="matrix(.88812 .45961 -.45961 .88812 306.33 -76.479)">
   <g transform="translate(-44.274 483.61)">
    <g transform="matrix(6.123e-17 -1 1 6.123e-17 -187.06 398.88)">
     <path d="m262.24 789.09c-31.076-62.152-74.803-219.89-51.79-280.45 5.3858-14.174 31.487 20.432 33.59 23.102 21.349 27.117 34.784 60.323 48.111 91.816"/>
     <path d="m320.81 789.09c31.076-62.152 74.803-219.89 51.79-280.45-5.3858-14.174-31.487 20.432-33.59 23.102-21.349 27.117-34.784 60.323-48.111 91.816"/>
    </g>
    <g transform="matrix(-1.8369e-16 1 -1 -1.8369e-16 896.12 -184.16)">
     <path d="m262.24 789.09c-31.076-62.152-74.803-219.89-51.79-280.45 5.3858-14.174 31.487 20.432 33.59 23.102 21.349 27.117 34.784 60.323 48.111 91.816"/>
     <path d="m320.81 789.09c31.076-62.152 74.803-219.89 51.79-280.45-5.3858-14.174-31.487 20.432-33.59 23.102-21.349 27.117-34.784 60.323-48.111 91.816"/>
    </g>
   </g>
   <g transform="matrix(6.123e-17 -1 1 6.123e-17 202.89 945.5)">
    <g transform="matrix(6.123e-17 -1 1 6.123e-17 -187.06 398.88)">
     <path d="m262.24 789.09c-31.076-62.152-74.803-219.89-51.79-280.45 5.3858-14.174 31.487 20.432 33.59 23.102 21.349 27.117 34.784 60.323 48.111 91.816"/>
     <path d="m320.81 789.09c31.076-62.152 74.803-219.89 51.79-280.45-5.3858-14.174-31.487 20.432-33.59 23.102-21.349 27.117-34.784 60.323-48.111 91.816"/>
    </g>
    <g transform="matrix(-1.8369e-16 1 -1 -1.8369e-16 896.12 -184.16)">
     <path d="m262.24 789.09c-31.076-62.152-74.803-219.89-51.79-280.45 5.3858-14.174 31.487 20.432 33.59 23.102 21.349 27.117 34.784 60.323 48.111 91.816"/>
     <path d="m320.81 789.09c31.076-62.152 74.803-219.89 51.79-280.45-5.3858-14.174-31.487 20.432-33.59 23.102-21.349 27.117-34.784 60.323-48.111 91.816"/>
    </g>
   </g>
   <g transform="matrix(-.71134 -.70285 .70285 -.71134 486.99 916.52)">
    <g transform="matrix(6.123e-17 -1 1 6.123e-17 -187.06 398.88)">
     <path d="m262.24 789.09c-31.076-62.152-74.803-219.89-51.79-280.45 5.3858-14.174 31.487 20.432 33.59 23.102 21.349 27.117 34.784 60.323 48.111 91.816"/>
     <path d="m320.81 789.09c31.076-62.152 74.803-219.89 51.79-280.45-5.3858-14.174-31.487 20.432-33.59 23.102-21.349 27.117-34.784 60.323-48.111 91.816"/>
    </g>
    <g transform="matrix(-1.8369e-16 1 -1 -1.8369e-16 896.12 -184.16)">
     <path d="m262.24 789.09c-31.076-62.152-74.803-219.89-51.79-280.45 5.3858-14.174 31.487 20.432 33.59 23.102 21.349 27.117 34.784 60.323 48.111 91.816"/>
     <path d="m320.81 789.09c31.076-62.152 74.803-219.89 51.79-280.45-5.3858-14.174-31.487 20.432-33.59 23.102-21.349 27.117-34.784 60.323-48.111 91.816"/>
    </g>
   </g>
   <g transform="matrix(-.70285 .71134 -.71134 -.70285 635.81 414.24)">
    <g transform="matrix(6.123e-17 -1 1 6.123e-17 -187.06 398.88)">
     <path d="m262.24 789.09c-31.076-62.152-74.803-219.89-51.79-280.45 5.3858-14.174 31.487 20.432 33.59 23.102 21.349 27.117 34.784 60.323 48.111 91.816"/>
     <path d="m320.81 789.09c31.076-62.152 74.803-219.89 51.79-280.45-5.3858-14.174-31.487 20.432-33.59 23.102-21.349 27.117-34.784 60.323-48.111 91.816"/>
    </g>
    <g transform="matrix(-1.8369e-16 1 -1 -1.8369e-16 896.12 -184.16)">
     <path d="m262.24 789.09c-31.076-62.152-74.803-219.89-51.79-280.45 5.3858-14.174 31.487 20.432 33.59 23.102 21.349 27.117 34.784 60.323 48.111 91.816"/>
     <path d="m320.81 789.09c31.076-62.152 74.803-219.89 51.79-280.45-5.3858-14.174-31.487 20.432-33.59 23.102-21.349 27.117-34.784 60.323-48.111 91.816"/>
    </g>
   </g>
  </g>
 </g>
</svg>
